<svg xmlns="http://www.w3.org/2000/svg" xmlns:xlink="http://www.w3.org/1999/xlink" contentStyleType="text/css" data-diagram-type="DESCRIPTION" height="976px" preserveAspectRatio="none" style="width:1773px;height:976px;background:#FFFFFF;" version="1.1" viewBox="0 0 1773 976" width="1773px" zoomAndPan="magnify"><title>MindMaker &#8212; System Context Diagram</title><defs/><g><g class="title" data-source-line="24"><text fill="#000000" font-family="sans-serif" font-size="14" font-weight="bold" lengthAdjust="spacing" textLength="308.2188" x="725.5407" y="22.9951">MindMaker &#8212; System Context Diagram</text></g><!--cluster MM--><g class="cluster" data-entity="MM" data-source-line="30" data-uid="ent0005" id="cluster_MM"><path d="M189.9087,43.2969 L441.3774,43.2969 A3.75,3.75 0 0 1 443.8774,45.7969 L450.8774,65.5938 L1207.9087,65.5938 A2.5,2.5 0 0 1 1210.4087,68.0938 L1210.4087,967.2469 A2.5,2.5 0 0 1 1207.9087,969.7469 L189.9087,969.7469 A2.5,2.5 0 0 1 187.4087,967.2469 L187.4087,45.7969 A2.5,2.5 0 0 1 189.9087,43.2969" fill="#EEF6FF" style="stroke:#1D4ED8;stroke-width:1.5;"/><line style="stroke:#1D4ED8;stroke-width:1.5;" x1="187.4087" x2="450.8774" y1="65.5938" y2="65.5938"/><text fill="#000000" font-family="sans-serif" font-size="14" font-weight="bold" lengthAdjust="spacing" textLength="250.4688" x="191.4087" y="58.292">MindMaker &#8212; System Boundary</text></g><!--cluster ING--><g class="cluster" data-entity="ING" data-source-line="31" data-uid="ent0006" id="cluster_ING"><path d="M213.9087,86.2969 L425.3872,86.2969 A3.75,3.75 0 0 1 427.8872,88.7969 L434.8872,108.5938 L734.9087,108.5938 A2.5,2.5 0 0 1 737.4087,111.0938 L737.4087,629.3169 A2.5,2.5 0 0 1 734.9087,631.8169 L213.9087,631.8169 A2.5,2.5 0 0 1 211.4087,629.3169 L211.4087,88.7969 A2.5,2.5 0 0 1 213.9087,86.2969" fill="#EEF6FF" style="stroke:#1D4ED8;stroke-width:1.5;"/><line style="stroke:#1D4ED8;stroke-width:1.5;" x1="211.4087" x2="434.8872" y1="108.5938" y2="108.5938"/><text fill="#000000" font-family="sans-serif" font-size="14" font-weight="bold" lengthAdjust="spacing" textLength="210.4785" x="215.4087" y="101.292">Ingestion Service (Python)</text></g><!--cluster API--><g class="cluster" data-entity="API" data-source-line="39" data-uid="ent0012" id="cluster_API"><path d="M763.9087,390.4769 L961.9067,390.4769 A3.75,3.75 0 0 1 964.4067,392.9769 L971.4067,412.7738 L1183.9087,412.7738 A2.5,2.5 0 0 1 1186.4087,415.2738 L1186.4087,800.7069 A2.5,2.5 0 0 1 1183.9087,803.2069 L763.9087,803.2069 A2.5,2.5 0 0 1 761.4087,800.7069 L761.4087,392.9769 A2.5,2.5 0 0 1 763.9087,390.4769" fill="#EEF6FF" style="stroke:#1D4ED8;stroke-width:1.5;"/><line style="stroke:#1D4ED8;stroke-width:1.5;" x1="761.4087" x2="971.4067" y1="412.7738" y2="412.7738"/><text fill="#000000" font-family="sans-serif" font-size="14" font-weight="bold" lengthAdjust="spacing" textLength="196.998" x="765.4087" y="405.472">MindMaker API (FastAPI)</text></g><!--cluster DATA--><g class="cluster" data-entity="DATA" data-source-line="47" data-uid="ent0018" id="cluster_DATA"><path d="M471.9087,686.9669 L629.4243,686.9669 A3.75,3.75 0 0 1 631.9243,689.4669 L638.9243,709.2638 L734.9087,709.2638 A2.5,2.5 0 0 1 737.4087,711.7638 L737.4087,943.2469 A2.5,2.5 0 0 1 734.9087,945.7469 L471.9087,945.7469 A2.5,2.5 0 0 1 469.4087,943.2469 L469.4087,689.4669 A2.5,2.5 0 0 1 471.9087,686.9669" fill="#EEF6FF" style="stroke:#1D4ED8;stroke-width:1.5;"/><line style="stroke:#1D4ED8;stroke-width:1.5;" x1="469.4087" x2="638.9243" y1="709.2638" y2="709.2638"/><text fill="#000000" font-family="sans-serif" font-size="14" font-weight="bold" lengthAdjust="spacing" textLength="156.5156" x="473.4087" y="701.962">Storage &amp; Analytics</text></g><!--entity P1--><g class="entity" data-entity="P1" data-source-line="32" data-uid="ent0007" id="entity_P1"><rect fill="#FFFFFF" height="52.5938" rx="2.5" ry="2.5" style="stroke:#666666;stroke-width:0.5;" width="224.2373" x="227.2887" y="121.2969"/><text fill="#000000" font-family="sans-serif" font-size="14" lengthAdjust="spacing" textLength="93.1602" x="237.2887" y="144.292">Poll Drive API</text><text fill="#000000" font-family="sans-serif" font-size="14" lengthAdjust="spacing" textLength="204.2373" x="237.2887" y="160.5889">(modifiedTime &gt; checkpoint)</text></g><!--entity P2--><g class="entity" data-entity="P2" data-source-line="33" data-uid="ent0008" id="entity_P2"><rect fill="#FFFFFF" height="36.2969" rx="2.5" ry="2.5" style="stroke:#666666;stroke-width:0.5;" width="164.2041" x="277.3087" y="263.0369"/><text fill="#000000" font-family="sans-serif" font-size="14" lengthAdjust="spacing" textLength="144.2041" x="287.3087" y="286.032">Export Docs &#8594; HTML</text></g><!--entity P3--><g class="entity" data-entity="P3" data-source-line="34" data-uid="ent0009" id="entity_P3"><rect fill="#FFFFFF" height="52.5938" rx="2.5" ry="2.5" style="stroke:#666666;stroke-width:0.5;" width="176.5771" x="304.1187" y="433.6269"/><text fill="#000000" font-family="sans-serif" font-size="14" lengthAdjust="spacing" textLength="103.0039" x="314.1187" y="456.622">Parse &amp; Chunk</text><text fill="#000000" font-family="sans-serif" font-size="14" lengthAdjust="spacing" textLength="156.5771" x="314.1187" y="472.9189">(Headings, tags, links)</text></g><!--entity P4--><g class="entity" data-entity="P4" data-source-line="35" data-uid="ent0010" id="entity_P4"><rect fill="#FFFFFF" height="36.2969" rx="2.5" ry="2.5" style="stroke:#666666;stroke-width:0.5;" width="147.2578" x="369.7787" y="579.5169"/><text fill="#000000" font-family="sans-serif" font-size="14" lengthAdjust="spacing" textLength="127.2578" x="379.7787" y="602.512">Upsert &#8594; Postgres</text></g><!--entity P5--><g class="entity" data-entity="P5" data-source-line="36" data-uid="ent0011" id="entity_P5"><rect fill="#FFFFFF" height="36.2969" rx="2.5" ry="2.5" style="stroke:#666666;stroke-width:0.5;" width="234.8193" x="486.9987" y="129.4469"/><text fill="#000000" font-family="sans-serif" font-size="14" lengthAdjust="spacing" textLength="214.8193" x="496.9987" y="152.442">Embed New/Changed Sections</text></g><!--entity A1--><g class="entity" data-entity="A1" data-source-line="40" data-uid="ent0013" id="entity_A1"><rect fill="#FFFFFF" height="52.5938" rx="2.5" ry="2.5" style="stroke:#666666;stroke-width:0.5;" width="163.623" x="777.5987" y="433.6269"/><text fill="#000000" font-family="sans-serif" font-size="14" lengthAdjust="spacing" textLength="114.6455" x="787.5987" y="456.622">Single Input Box</text><text fill="#000000" font-family="sans-serif" font-size="14" lengthAdjust="spacing" textLength="143.623" x="787.5987" y="472.9189">Mode: Answer / Quiz</text></g><!--entity A2--><g class="entity" data-entity="A2" data-source-line="41" data-uid="ent0014" id="entity_A2"><rect fill="#FFFFFF" height="52.5938" rx="2.5" ry="2.5" style="stroke:#666666;stroke-width:0.5;" width="153.2324" x="777.7887" y="571.3769"/><text fill="#000000" font-family="sans-serif" font-size="14" lengthAdjust="spacing" textLength="113.5244" x="787.7887" y="594.372">Hybrid Retrieval</text><text fill="#000000" font-family="sans-serif" font-size="14" lengthAdjust="spacing" textLength="133.2324" x="787.7887" y="610.6689">(BM25 + pgvector)</text></g><!--entity A3--><g class="entity" data-entity="A3" data-source-line="42" data-uid="ent0015" id="entity_A3"><rect fill="#FFFFFF" height="36.2969" rx="2.5" ry="2.5" style="stroke:#666666;stroke-width:0.5;" width="154.0391" x="1008.3887" y="742.7669"/><text fill="#000000" font-family="sans-serif" font-size="14" lengthAdjust="spacing" textLength="134.0391" x="1018.3887" y="765.762">Answer + Citations</text></g><!--entity A4--><g class="entity" data-entity="A4" data-source-line="43" data-uid="ent0016" id="entity_A4"><rect fill="#FFFFFF" height="52.5938" rx="2.5" ry="2.5" style="stroke:#666666;stroke-width:0.5;" width="174.082" x="792.3687" y="734.6169"/><text fill="#000000" font-family="sans-serif" font-size="14" lengthAdjust="spacing" textLength="118.3369" x="802.3687" y="757.612">Quiz JSON (MCQ)</text><text fill="#000000" font-family="sans-serif" font-size="14" lengthAdjust="spacing" textLength="154.082" x="802.3687" y="773.9089">Deterministic Grading</text></g><!--entity A5--><g class="entity" data-entity="A5" data-source-line="44" data-uid="ent0017" id="entity_A5"><rect fill="#FFFFFF" height="68.8906" rx="2.5" ry="2.5" style="stroke:#666666;stroke-width:0.5;" width="194.4531" x="976.1787" y="425.4769"/><text fill="#000000" font-family="sans-serif" font-size="14" lengthAdjust="spacing" textLength="100.3447" x="986.1787" y="448.472">Event Logging</text><text fill="#000000" font-family="sans-serif" font-size="14" lengthAdjust="spacing" textLength="150.7666" x="986.1787" y="464.7689">(queries, helpfulness,</text><text fill="#000000" font-family="sans-serif" font-size="14" lengthAdjust="spacing" textLength="174.4531" x="986.1787" y="481.0657">quiz attempts, accuracy)</text></g><!--entity PG--><g class="entity" data-entity="PG" data-source-line="48" data-uid="ent0019" id="entity_PG"><path d="M496.5987,731.9669 C496.5987,721.9669 603.4024,721.9669 603.4024,721.9669 C603.4024,721.9669 710.2061,721.9669 710.2061,731.9669 L710.2061,789.8575 C710.2061,799.8575 603.4024,799.8575 603.4024,799.8575 C603.4024,799.8575 496.5987,799.8575 496.5987,789.8575 L496.5987,731.9669" fill="#FFF7ED" style="stroke:#F59E0B;stroke-width:0.5;"/><path d="M496.5987,731.9669 C496.5987,741.9669 603.4024,741.9669 603.4024,741.9669 C603.4024,741.9669 710.2061,741.9669 710.2061,731.9669" fill="none" style="stroke:#F59E0B;stroke-width:0.5;"/><text fill="#000000" font-family="sans-serif" font-size="14" lengthAdjust="spacing" textLength="143.1514" x="506.5987" y="758.962">Postgres + pgvector</text><text fill="#000000" font-family="sans-serif" font-size="14" lengthAdjust="spacing" textLength="193.6074" x="506.5987" y="775.2589">(documents, sections, tags,</text><text fill="#000000" font-family="sans-serif" font-size="14" lengthAdjust="spacing" textLength="145.4824" x="506.5987" y="791.5557">links, events, quiz_*)</text></g><!--entity MB--><g class="entity" data-entity="MB" data-source-line="49" data-uid="ent0020" id="entity_MB"><rect fill="#FFFFFF" height="68.8906" rx="2.5" ry="2.5" style="stroke:#666666;stroke-width:0.5;" width="236.2891" x="485.2587" y="860.8569"/><text fill="#000000" font-family="sans-serif" font-size="14" lengthAdjust="spacing" textLength="156.0781" x="495.2587" y="883.852">Metabase Dashboards</text><text fill="#000000" font-family="sans-serif" font-size="14" lengthAdjust="spacing" textLength="216.2891" x="495.2587" y="900.1489">(coverage, intake, helpfulness,</text><text fill="#000000" font-family="sans-serif" font-size="14" lengthAdjust="spacing" textLength="68.626" x="495.2587" y="916.4457">accuracy)</text></g><!--entity User--><g class="entity" data-entity="User" data-source-line="26" data-uid="ent0002" id="entity_User"><ellipse cx="1298.4077" cy="243.3869" fill="#F1F1F1" rx="8" ry="8" style="stroke:#181818;stroke-width:0.5;"/><path d="M1298.4077,251.3869 L1298.4077,278.3869 M1285.4077,259.3869 L1311.4077,259.3869 M1298.4077,278.3869 L1285.4077,293.3869 M1298.4077,278.3869 L1311.4077,293.3869" fill="none" style="stroke:#181818;stroke-width:0.5;"/><text fill="#000000" font-family="sans-serif" font-size="14" lengthAdjust="spacing" textLength="96.6191" x="1237.5987" y="307.882">User: Phoenix</text><text fill="#000000" font-family="sans-serif" font-size="14" lengthAdjust="spacing" textLength="121.6182" x="1237.5987" y="324.1789">(Analyst/Learner)</text></g><!--entity Drive--><g class="entity" data-entity="Drive" data-source-line="27" data-uid="ent0003" id="entity_Drive"><path d="M1613.3136,437.1663 C1617.8022,432.2 1622.4042,431.3251 1626.0581,438.0743 C1628.2633,433.0501 1633.1977,432.7128 1636.3327,437.0541 C1639.8471,430.9697 1644.6665,431.5276 1648.4829,436.729 C1652.7607,431.7168 1656.453,432.0074 1660.3357,437.1885 C1664.4037,429.6759 1669.0854,429.9388 1673.7471,436.6278 C1676.4649,431.0977 1681.2846,430.9539 1684.3358,436.3033 C1688.3585,430.9564 1693.4043,431.1911 1696.8441,436.9592 C1699.9903,430.7313 1705.8319,431.6096 1709.199,436.7183 C1711.8764,431.1502 1716.3919,432.0819 1719.5781,436.1715 C1723.3664,431.2028 1728.1746,430.5488 1731.2961,436.8638 C1734.7386,431.7657 1740.6874,431.3028 1743.2837,437.7429 C1747.1824,432.4013 1750.9276,433.0529 1754.862,437.7014 C1761.3546,440.7236 1761.8875,444.8113 1757.8524,450.327 C1763.9955,452.5293 1765.6296,455.8689 1760.9707,461.176 C1766.3002,466.2266 1763.5129,471.6945 1757.2315,473.1059 C1762.716,477.491 1761.548,482.155 1755.1327,484.3111 C1751.5769,490.3631 1747.6073,490.3718 1743.876,484.4765 C1740.8982,489.7028 1735.3699,490.1559 1732.6727,484.1955 C1729.7529,490.2162 1723.8571,492.1183 1719.5866,485.6058 C1716.8761,491.4112 1711.9274,492.8299 1707.7055,487.1723 C1704.016,491.5707 1699.9865,492.1666 1696.579,486.8492 C1692.5181,492.6349 1688.6624,492.1867 1684.7636,486.6795 C1681.5668,491.4536 1677.0052,492.2669 1673.6277,486.8774 C1669.4997,492.6 1664.1324,491.8758 1660.6499,486.1459 C1655.8578,491.4359 1651.8584,490.2173 1648.4222,484.6228 C1645.5073,491.0585 1641.6529,491.9774 1636.9717,486.2913 C1632.6491,491.2833 1628.9024,491.3307 1625.6104,485.2352 C1622.552,491.6422 1616.4809,491.3375 1613.4488,485.2096 C1606.3359,482.421 1604.9357,478.7251 1609.9517,472.5785 C1603.936,472.1805 1601.0357,467.2916 1604.2217,461.9383 C1600.3324,456.0858 1602.7936,450.1011 1609.7704,448.8579 C1605.1154,444.067 1607.3085,438.7266 1613.3136,437.1663" fill="#F6F8FA" style="stroke:#8B949E;stroke-width:0.5;"/><text fill="#000000" font-family="sans-serif" font-size="14" lengthAdjust="spacing" textLength="91.1436" x="1619.4487" y="456.622">Google Drive</text><text fill="#000000" font-family="sans-serif" font-size="14" lengthAdjust="spacing" textLength="127.9209" x="1619.4487" y="472.9189">(Authoring Folder)</text></g><!--entity LLM--><g class="entity" data-entity="LLM" data-source-line="28" data-uid="ent0004" id="entity_LLM"><path d="M19.2291,739.0057 C22.1467,732.6235 26.5704,732.9344 30.7308,737.7264 C33.7674,732.8241 38.9962,732.0107 42.5238,737.1498 C46.5921,731.7432 52.8611,732.5578 55.8099,738.4644 C58.0309,732.4468 63.1601,733.4538 66.3412,737.4553 C70.6671,730.6727 76.6583,731.8444 80.355,738.1301 C82.3379,731.778 87.6205,730.8061 91.5573,736.2792 C95.799,730.149 99.9491,730.9036 103.5607,736.9028 C107.8864,731.9343 112.5723,732.0291 116.3108,737.6124 C120.1795,732.8621 124.2999,732.08 127.406,738.3782 C131.4351,732.3463 137.3718,732.0545 141.2056,738.5926 C144.1751,733.4061 149.1828,733.1374 152.5239,738.1815 C156.8877,731.5034 162.4249,732.2892 165.6166,739.3025 C170.7035,742.5452 171.1388,747.5111 165.7576,750.8814 C171.8556,752.6212 171.8698,757.9147 167.3421,761.2744 C173.4559,765.2004 172.6207,771.1183 166.7075,774.4657 C170.9923,779.2555 169.7356,783.0943 163.9298,785.2963 C160.9495,791.0972 156.6221,790.4334 153.0941,785.8689 C149.2761,792.3878 145.0245,791.0566 141.1436,785.9335 C138.9074,793.6814 132.6584,794.5836 127.7417,788.538 C124.5937,793.935 118.9738,794.845 115.997,788.3686 C113.7348,795.5273 108.0875,796.6216 103.6321,790.3946 C99.3728,796.7663 95.0116,796.4404 90.7934,790.3523 C87.3389,795.3345 82.3844,794.4244 79.7575,789.4362 C75.2678,795.0181 69.0327,794.8139 66.3226,787.5719 C63.0855,792.6719 59.1715,791.8875 55.9698,787.5332 C51.0058,793.9332 46.2817,793.6622 41.9691,786.8434 C38.1884,791.9236 33.7555,791.3825 30.7805,785.9832 C26.8057,792.3216 20.5303,791.0417 17.4025,785.0632 C10.6148,782.9175 8.9231,779.6 13.5738,773.6254 C6.9529,770.4882 6,766.5803 11.2707,761.2331 C6.7147,757.2224 7.6622,752.9738 13.2303,750.8792 C8.916,744.1459 11.7281,739.7697 19.2291,739.0057" fill="#F6F8FA" style="stroke:#8B949E;stroke-width:0.5;"/><text fill="#000000" font-family="sans-serif" font-size="14" lengthAdjust="spacing" textLength="90.3232" x="24.1587" y="757.612">LLM Provider</text><text fill="#000000" font-family="sans-serif" font-size="14" lengthAdjust="spacing" textLength="132.4941" x="24.1587" y="773.9089">(Embeddings/RAG)</text></g><!--link User to Drive--><g class="link" data-entity-1="User" data-entity-2="Drive" data-source-line="54" data-uid="lnk21" id="link_User_Drive"><path d="M1359.5687,293.4869 C1412.8087,304.8669 1491.0087,325.3969 1553.4087,357.4769 C1589.9387,376.2669 1621.9031,401.8595 1646.8531,424.2495" fill="none" id="User-to-Drive" style="stroke:#181818;stroke-width:1;"/><polygon fill="#181818" points="1651.3187,428.2569,1647.2919,419.2688,1647.5974,424.9174,1641.9488,425.2229,1651.3187,428.2569" style="stroke:#181818;stroke-width:1;"/><text fill="#000000" font-family="sans-serif" font-size="13" lengthAdjust="spacing" textLength="83.0337" x="1581.4087" y="370.5438">author notes</text></g><!--link Drive to P1--><g class="link" data-entity-1="Drive" data-entity-2="P1" data-source-line="55" data-uid="lnk22" id="link_Drive_P1"><path d="M1688.1387,428.4969 C1689.8287,406.6669 1688.3887,377.6569 1673.4087,357.4769 C1588.2587,242.8369 1515.4687,267.3469 1376.4087,234.8869 C982.9587,143.0469 870.0387,226.1269 469.4087,173.8869 C463.7087,173.1469 463.8078,173.226 457.9378,172.316" fill="none" id="Drive-to-P1" style="stroke:#181818;stroke-width:1;"/><polygon fill="#181818" points="452.0087,171.3969,460.2896,176.7284,456.9496,172.1629,461.5152,168.8229,452.0087,171.3969" style="stroke:#181818;stroke-width:1;"/><text fill="#000000" font-family="sans-serif" font-size="13" lengthAdjust="spacing" textLength="106.1201" x="1648.4087" y="285.7538">list/export HTML</text></g><!--link P1 to P2--><g class="link" data-entity-1="P1" data-entity-2="P2" data-source-line="56" data-uid="lnk23" id="link_P1_P2"><path d="M343.3087,174.2769 C347.2687,200.3069 352.3763,233.9451 355.8263,256.6251" fill="none" id="P1-to-P2" style="stroke:#181818;stroke-width:1;"/><polygon fill="#181818" points="356.7287,262.5569,359.3297,253.0577,355.9767,257.6137,351.4207,254.2608,356.7287,262.5569" style="stroke:#181818;stroke-width:1;"/></g><!--link P2 to P3--><g class="link" data-entity-1="P2" data-entity-2="P3" data-source-line="57" data-uid="lnk24" id="link_P2_P3"><path d="M362.6887,299.7769 C368.5387,331.1269 379.6977,390.8587 386.4977,427.2887" fill="none" id="P2-to-P3" style="stroke:#181818;stroke-width:1;"/><polygon fill="#181818" points="387.5987,433.1869,389.8793,423.6057,386.6812,428.2718,382.0152,425.0736,387.5987,433.1869" style="stroke:#181818;stroke-width:1;"/></g><!--link P3 to P4--><g class="link" data-entity-1="P3" data-entity-2="P4" data-source-line="58" data-uid="lnk25" id="link_P3_P4"><path d="M401.9987,486.4569 C412.1587,513.4969 425.8083,549.8303 434.6683,573.4103" fill="none" id="P3-to-P4" style="stroke:#181818;stroke-width:1;"/><polygon fill="#181818" points="436.7787,579.0269,437.3575,569.195,435.02,574.3464,429.8687,572.0089,436.7787,579.0269" style="stroke:#181818;stroke-width:1;"/></g><!--link P4 to PG--><g class="link" data-entity-1="P4" data-entity-2="PG" data-source-line="59" data-uid="lnk26" id="link_P4_PG"><path d="M460.8287,616.2269 C485.7787,641.3669 528.0827,683.9977 561.1927,717.3677" fill="none" id="P4-to-PG" style="stroke:#181818;stroke-width:1;"/><polygon fill="#181818" points="565.4187,721.6269,561.9191,712.4207,561.897,718.0775,556.2402,718.0554,565.4187,721.6269" style="stroke:#181818;stroke-width:1;"/></g><!--link P5 to PG--><g class="link" data-entity-1="P5" data-entity-2="PG" data-source-line="60" data-uid="lnk27" id="link_P5_PG"><path d="M604.1887,166.0469 C603.8987,191.2469 603.4087,239.2869 603.4087,280.1869 C603.4087,280.1869 603.4087,280.1869 603.4087,598.6669 C603.4087,640.6569 603.4087,682.7969 603.4087,715.4669" fill="none" id="P5-to-PG" style="stroke:#181818;stroke-width:1;"/><polygon fill="#181818" points="603.4087,721.4669,607.4087,712.4669,603.4087,716.4669,599.4087,712.4669,603.4087,721.4669" style="stroke:#181818;stroke-width:1;"/><text fill="#000000" font-family="sans-serif" font-size="13" lengthAdjust="spacing" textLength="92.187" x="604.4087" y="464.4938">section.vector</text></g><!--link User to A1--><g class="link" data-entity-1="User" data-entity-2="A1" data-source-line="63" data-uid="lnk28" id="link_User_A1"><path d="M1237.3187,287.0669 C1140.1287,295.9269 956.0887,317.5569 905.4087,357.4769 C881.5587,376.2669 871.064,404.3338 865.424,427.7438" fill="none" id="User-to-A1" style="stroke:#181818;stroke-width:1;"/><polygon fill="#181818" points="864.0187,433.5769,870.0154,425.7641,865.1898,428.716,862.2379,423.8903,864.0187,433.5769" style="stroke:#181818;stroke-width:1;"/><text fill="#000000" font-family="sans-serif" font-size="13" lengthAdjust="spacing" textLength="107.4087" x="906.4087" y="370.5438">ask/quiz request</text></g><!--link A1 to A2--><g class="link" data-entity-1="A1" data-entity-2="A2" data-source-line="64" data-uid="lnk29" id="link_A1_A2"><path d="M858.4687,486.4569 C857.5687,510.7269 856.4614,541.021 855.5614,565.251" fill="none" id="A1-to-A2" style="stroke:#181818;stroke-width:1;"/><polygon fill="#181818" points="855.3387,571.2469,859.67,562.4016,855.5243,566.2503,851.6755,562.1046,855.3387,571.2469" style="stroke:#181818;stroke-width:1;"/></g><!--link A2 to PG--><g class="link" data-entity-1="A2" data-entity-2="PG" data-source-line="65" data-uid="lnk30" id="link_A2_PG"><path d="M785.8887,624.3969 C770.0887,629.8769 753.2587,635.3469 737.4087,639.8169 C708.5287,647.9569 696.0687,636.8869 671.4087,653.9669 C647.5087,670.5169 632.7165,693.073 621.4965,716.103" fill="none" id="A2-to-PG" style="stroke:#181818;stroke-width:1;"/><polygon fill="#181818" points="618.8687,721.4969,626.4064,715.1579,621.0586,717.0019,619.2145,711.6541,618.8687,721.4969" style="stroke:#181818;stroke-width:1;"/><text fill="#000000" font-family="sans-serif" font-size="13" lengthAdjust="spacing" textLength="144.6694" x="672.4087" y="667.0338">BM25 + vector search</text></g><!--link A2 to A3--><g class="link" data-entity-1="A2" data-entity-2="A3" data-source-line="66" data-uid="lnk31" id="link_A2_A3"><path d="M898.8987,624.3169 C924.4187,639.4769 956.7687,659.4669 984.4087,678.9669 C1013.4187,699.4369 1040.5103,721.589 1060.5103,738.529" fill="none" id="A2-to-A3" style="stroke:#181818;stroke-width:1;"/><polygon fill="#181818" points="1065.0887,742.4069,1060.8063,733.5377,1061.2733,739.1753,1055.6358,739.6423,1065.0887,742.4069" style="stroke:#181818;stroke-width:1;"/><text fill="#000000" font-family="sans-serif" font-size="13" lengthAdjust="spacing" textLength="91.2476" x="971.4087" y="667.0338">top-k sections</text></g><!--link A2 to A4--><g class="link" data-entity-1="A2" data-entity-2="A4" data-source-line="67" data-uid="lnk32" id="link_A2_A4"><path d="M836.4487,624.3869 C829.0687,638.0269 823.1287,655.1869 827.4087,670.9669 C833.6687,694.0969 844.1856,712.4731 856.0556,729.4131" fill="none" id="A2-to-A4" style="stroke:#181818;stroke-width:1;"/><polygon fill="#181818" points="859.4987,734.3269,857.6098,724.6608,856.6294,730.2321,851.0582,729.2516,859.4987,734.3269" style="stroke:#181818;stroke-width:1;"/><text fill="#000000" font-family="sans-serif" font-size="13" lengthAdjust="spacing" textLength="91.2476" x="828.4087" y="667.0338">top-k sections</text></g><!--link A3 to User--><g class="link" data-entity-1="A3" data-entity-2="User" data-source-line="68" data-uid="lnk33" id="link_A3_User"><path d="M1108.7387,742.4569 C1130.3587,725.6069 1162.6687,698.6269 1186.4087,670.9669 C1230.9487,619.0569 1246.5587,605.8369 1269.4087,541.3769 C1294.8087,469.6769 1299.3439,386.4569 1299.4739,333.5869" fill="none" id="A3-to-User" style="stroke:#181818;stroke-width:1;"/><polygon fill="#181818" points="1299.4887,327.5869,1295.4665,336.577,1299.4764,332.5869,1303.4665,336.5967,1299.4887,327.5869" style="stroke:#181818;stroke-width:1;"/><text fill="#000000" font-family="sans-serif" font-size="13" lengthAdjust="spacing" textLength="201.0684" x="1275.4087" y="537.4438">answer + citations (section_id)</text></g><!--link A4 to User--><g class="link" data-entity-1="A4" data-entity-2="User" data-source-line="69" data-uid="lnk34" id="link_A4_User"><path d="M905.6887,734.4169 C926.7787,715.6369 958.0987,691.3069 990.4087,678.9669 C1023.7887,666.2169 1036.1587,681.1569 1070.4087,670.9669 C1099.1987,662.3969 1112.3587,663.8369 1130.4087,639.8169 C1161.8287,597.9869 1126.9887,569.5269 1153.4087,524.3769 C1163.7487,506.6869 1175.6787,510.4269 1188.4087,494.3769 C1229.5187,442.5069 1259.7985,378.4385 1278.5185,333.3385" fill="none" id="A4-to-User" style="stroke:#181818;stroke-width:1;"/><polygon fill="#181818" points="1280.8187,327.7969,1273.674,334.5758,1278.9018,332.4149,1281.0628,337.6427,1280.8187,327.7969" style="stroke:#181818;stroke-width:1;"/><text fill="#000000" font-family="sans-serif" font-size="13" lengthAdjust="spacing" textLength="106.6851" x="1154.4087" y="537.4438">MCQs + sources</text></g><!--link User to A5--><g class="link" data-entity-1="User" data-entity-2="A5" data-source-line="70" data-uid="lnk35" id="link_User_A5"><path d="M1237.1087,290.6969 C1165.7387,302.0169 1054.4287,324.4969 1029.4087,357.4769 C1013.9787,377.8269 1022.8727,399.5964 1038.4227,420.4564" fill="none" id="User-to-A5" style="stroke:#181818;stroke-width:1;"/><polygon fill="#181818" points="1042.0087,425.2669,1039.8367,415.6605,1039.0204,421.2581,1033.4227,420.4418,1042.0087,425.2669" style="stroke:#181818;stroke-width:1;"/><text fill="#000000" font-family="sans-serif" font-size="13" lengthAdjust="spacing" textLength="166.8862" x="1030.4087" y="370.5438">helpfulness / quiz choices</text></g><!--link A5 to PG--><g class="link" data-entity-1="A5" data-entity-2="PG" data-source-line="71" data-uid="lnk36" id="link_A5_PG"><path d="M1076.0187,494.6169 C1079.3387,547.7969 1081.9687,647.5769 1057.4087,670.9669 C1045.4887,682.3069 777.3487,674.8969 761.4087,678.9669 C726.9187,687.7769 696.5957,702.1357 667.9857,718.5157" fill="none" id="A5-to-PG" style="stroke:#181818;stroke-width:1;"/><polygon fill="#181818" points="662.7787,721.4969,672.5766,720.4965,667.1178,719.0126,668.6017,713.5538,662.7787,721.4969" style="stroke:#181818;stroke-width:1;"/><text fill="#000000" font-family="sans-serif" font-size="13" lengthAdjust="spacing" textLength="43.7988" x="1078.4087" y="602.2338">events</text></g><!--link PG to MB--><g class="link" data-entity-1="PG" data-entity-2="MB" data-source-line="74" data-uid="lnk37" id="link_PG_MB"><path d="M603.4087,800.2069 C603.4087,819.2969 603.4087,836.1769 603.4087,854.5969" fill="none" id="PG-to-MB" style="stroke:#181818;stroke-width:1;"/><polygon fill="#181818" points="603.4087,860.5969,607.4087,851.5969,603.4087,855.5969,599.4087,851.5969,603.4087,860.5969" style="stroke:#181818;stroke-width:1;"/></g><!--link User to MB--><g class="link" data-entity-1="User" data-entity-2="MB" data-source-line="75" data-uid="lnk38" id="link_User_MB"><path d="M1359.4887,324.2969 C1429.4187,373.0169 1534.4087,447.9969 1534.4087,458.9269 C1534.4087,458.9269 1534.4087,458.9269 1534.4087,761.9069 C1534.4087,843.0769 978.5323,877.7606 727.7823,889.3206" fill="none" id="User-to-MB" style="stroke:#181818;stroke-width:1;"/><polygon fill="#181818" points="721.7887,889.5969,730.9633,893.1782,726.7834,889.3666,730.5949,885.1866,721.7887,889.5969" style="stroke:#181818;stroke-width:1;"/><text fill="#000000" font-family="sans-serif" font-size="13" lengthAdjust="spacing" textLength="109.8398" x="1535.4087" y="602.2338">view dashboards</text></g><!--link A2 to LLM--><g class="link" data-entity-1="A2" data-entity-2="LLM" data-source-line="78" data-uid="lnk39" id="link_A2_LLM"><path d="M791.8787,624.4069 C774.5187,630.5169 755.4687,636.2869 737.4087,639.8169 C609.4587,664.8469 572.9087,631.9669 444.4087,653.9669 C348.9287,670.3069 248.5754,702.2364 177.6854,727.3064" fill="none" id="A2-to-LLM" style="stroke:#181818;stroke-width:1;stroke-dasharray:7,7;"/><polygon fill="#181818" points="172.0287,729.3069,181.8473,730.0773,176.7426,727.6398,179.1801,722.535,172.0287,729.3069" style="stroke:#181818;stroke-width:1;"/><text fill="#000000" font-family="sans-serif" font-size="13" lengthAdjust="spacing" textLength="199.3989" x="445.4087" y="667.0338">embed/query vector (optional)</text></g><!--SRC=[TLLjJoCt4FxkNp7DIKVe0Jb2e80gf2Kv0bMMsoEWzWCISdPdirOszfxj3QJLIVtK7r3r5zulwNYzUI7XlYIEP-QPcMSUJtRW9eMvAZL4EPVs8Hn0fem5KnQ5qjQ0a75U9cZEsGxyLF-0NxkTLhVpr5NIuekzO6JRtz-7Avxd8nvFO2gacF8SZ9tdGev1f4iSu1hbZWK-uoBdennT93CJ8Gkk-HHCnXFrx89IdXjSisYCBPTZYlYB0LnIdh5MfKowAbSQVi-4HNUlT8BQtxqxEJcXgpldXGcSiczhS76kokHDg7VfINgQyasmqz5PvmnVOIJSyX4t-0EODFq5aqsOzFWCFuvUmHGKoSS_G46aSj9DbCEaWubhY5bXYP9Go2Ja4zJm_U__O3Wt5gTGpmTwWeyf3sCyjXJSU32epo7A54hnyYYRWUGvHRG6oBL4lTi0Ri0vCKzIew-KuxsdnGoTVsapfTsChbIUB08gwo9YC0WXqceco4mHdwOZJ1AACAsxeE_zoOMnHUkDDnkuT3nmFQ_ymx0YQ1bn8yTeh50IXgXd8aPeHdCgJ7huczj-vGzhmcb4AizzeH14DrJOL2KY5PZSYod21SGPnfD22MazI7IuYV3fnRqBwAdOmFT__eNh-t3WNTjRoRWcQRo7RbRA2UMwHbvHi0UMkqzw6XDJvpdQ37ueY7zRfOZeGOur6k_PsQh8SGkt-DpgPdH5vo4PYPSwu9W2I2ThpAsu9XAWUSMDfOElnDriqJOKrVUDB4fBGo7DX2h1SmYaUIQK5dmfnPy-V8kmw_b8YmJkq6g1CvuJ4PTX-nW-G36UeHDadNYBlnhz0tI5vQk6WYskN7RuRVZv5ffXzylke-oXHUsM4EaZXhwkUFV1s_JDK5eOgF6OVAYuhoLIeJIU3FCYBNE9nkmzogyk1xUaoiAIaSTngNayhslVvdX8ZRd3UwXU5zNXg-y5zq5Dy79xD1OJNYE5AabKN4wfE4fdwedMqdcKbNRs06VUxgfx-hdMKd-pnH3hH3rkif7YEZ447wiPkXBtQ3TRKiDcnwzR32-h5h-vNHzfskvw3dov1z9SFJEtCMYRNzGFxBosWrGM3VENpXmTaYsdsRJGFoRtXXZTLiOsYzh-TCIY8t_giAZZJtqM7TSd0gbfEV2KkTAMCYFY7_vObHIudDnCMjKSDTAKZMM1pqdI2zehr5gU7fHoS1rd2uVWY1oiAlOdovaiJPqtJBw1gWpAln1ql10qD6lN9v7iig2pxarITe8mzESS4t-hLex9k3OgUdvLKt6cX7CCrWZo-d34h4RFoE8SQA9BpF2Id6S2dqcKIp-A-bouueXD-Xj1JGTX1LOT7nnSk0tkShZzqtBFPhxWhAdgkDt_0G00]--></g></svg>